<mxfile host="app.diagrams.net" modified="2022-11-21T08:21:04.257Z" agent="5.0 (Macintosh; Intel Mac OS X 10_15_7) AppleWebKit/605.1.15 (KHTML, like Gecko) Version/16.1 Safari/605.1.15" etag="hi_am79F2q3bgRxu4D_p" version="20.5.3" type="github">
  <diagram id="C55GAdEgixcBntScY-7r" name="第 1 页">
    <mxGraphModel dx="1453" dy="962" grid="1" gridSize="10" guides="1" tooltips="1" connect="1" arrows="1" fold="1" page="1" pageScale="1" pageWidth="827" pageHeight="1169" math="0" shadow="0">
      <root>
        <mxCell id="0" />
        <mxCell id="1" parent="0" />
        <mxCell id="GCaUtwYMzPnIk7fHXFFh-43" value="" style="group" parent="1" vertex="1" connectable="0">
          <mxGeometry y="400" width="120" height="110" as="geometry" />
        </mxCell>
        <mxCell id="GCaUtwYMzPnIk7fHXFFh-23" value="&lt;p&gt;86盒&lt;/p&gt;&lt;p&gt;&lt;br&gt;&lt;/p&gt;" style="rounded=1;whiteSpace=wrap;html=1;align=left;" parent="GCaUtwYMzPnIk7fHXFFh-43" vertex="1">
          <mxGeometry width="120" height="110" as="geometry" />
        </mxCell>
        <mxCell id="GCaUtwYMzPnIk7fHXFFh-28" value="开关1" style="rounded=1;whiteSpace=wrap;html=1;" parent="GCaUtwYMzPnIk7fHXFFh-43" vertex="1">
          <mxGeometry x="30" y="80" width="60" height="30" as="geometry" />
        </mxCell>
        <mxCell id="GCaUtwYMzPnIk7fHXFFh-32" value="凌动双控开关" style="text;html=1;align=center;verticalAlign=middle;resizable=0;points=[];autosize=1;strokeColor=none;fillColor=none;" parent="GCaUtwYMzPnIk7fHXFFh-43" vertex="1">
          <mxGeometry x="10" y="50" width="100" height="30" as="geometry" />
        </mxCell>
        <mxCell id="GCaUtwYMzPnIk7fHXFFh-52" value="" style="group" parent="1" vertex="1" connectable="0">
          <mxGeometry x="800" y="400" width="120" height="110" as="geometry" />
        </mxCell>
        <mxCell id="GCaUtwYMzPnIk7fHXFFh-53" value="&lt;p&gt;86盒&lt;/p&gt;&lt;p&gt;&lt;br&gt;&lt;/p&gt;" style="rounded=1;whiteSpace=wrap;html=1;align=left;" parent="GCaUtwYMzPnIk7fHXFFh-52" vertex="1">
          <mxGeometry width="120" height="110" as="geometry" />
        </mxCell>
        <mxCell id="GCaUtwYMzPnIk7fHXFFh-54" value="开关5" style="rounded=1;whiteSpace=wrap;html=1;" parent="GCaUtwYMzPnIk7fHXFFh-52" vertex="1">
          <mxGeometry x="30" y="80" width="60" height="30" as="geometry" />
        </mxCell>
        <mxCell id="GCaUtwYMzPnIk7fHXFFh-55" value="凌动双控开关" style="text;html=1;align=center;verticalAlign=middle;resizable=0;points=[];autosize=1;strokeColor=none;fillColor=none;" parent="GCaUtwYMzPnIk7fHXFFh-52" vertex="1">
          <mxGeometry x="10" y="50" width="100" height="30" as="geometry" />
        </mxCell>
        <mxCell id="GCaUtwYMzPnIk7fHXFFh-64" value="" style="group" parent="1" vertex="1" connectable="0">
          <mxGeometry x="400" y="400" width="120" height="110" as="geometry" />
        </mxCell>
        <mxCell id="GCaUtwYMzPnIk7fHXFFh-57" value="&lt;p&gt;86盒&lt;/p&gt;&lt;p&gt;&lt;br&gt;&lt;/p&gt;" style="rounded=1;whiteSpace=wrap;html=1;align=left;" parent="GCaUtwYMzPnIk7fHXFFh-64" vertex="1">
          <mxGeometry width="120" height="110" as="geometry" />
        </mxCell>
        <mxCell id="GCaUtwYMzPnIk7fHXFFh-59" value="开关3A" style="rounded=1;whiteSpace=wrap;html=1;" parent="GCaUtwYMzPnIk7fHXFFh-64" vertex="1">
          <mxGeometry y="80" width="60" height="30" as="geometry" />
        </mxCell>
        <mxCell id="GCaUtwYMzPnIk7fHXFFh-60" value="双控3B" style="rounded=1;whiteSpace=wrap;html=1;" parent="GCaUtwYMzPnIk7fHXFFh-64" vertex="1">
          <mxGeometry x="60" y="80" width="60" height="30" as="geometry" />
        </mxCell>
        <mxCell id="GCaUtwYMzPnIk7fHXFFh-61" value="双路凌动双控开关" style="text;html=1;align=center;verticalAlign=middle;resizable=0;points=[];autosize=1;strokeColor=none;fillColor=none;" parent="GCaUtwYMzPnIk7fHXFFh-64" vertex="1">
          <mxGeometry y="50" width="120" height="30" as="geometry" />
        </mxCell>
        <mxCell id="GCaUtwYMzPnIk7fHXFFh-66" value="" style="group" parent="1" vertex="1" connectable="0">
          <mxGeometry x="120" y="200" width="280" height="310" as="geometry" />
        </mxCell>
        <mxCell id="GCaUtwYMzPnIk7fHXFFh-2" value="" style="shape=image;html=1;verticalAlign=top;verticalLabelPosition=bottom;labelBackgroundColor=#ffffff;imageAspect=0;aspect=fixed;image=https://cdn1.iconfinder.com/data/icons/ui-essential-17/32/UI_Essential_Outline_1_essential-app-ui-creative-idea-lamp-128.png" parent="GCaUtwYMzPnIk7fHXFFh-66" vertex="1">
          <mxGeometry width="80" height="80" as="geometry" />
        </mxCell>
        <mxCell id="GCaUtwYMzPnIk7fHXFFh-3" value="" style="shape=image;html=1;verticalAlign=top;verticalLabelPosition=bottom;labelBackgroundColor=#ffffff;imageAspect=0;aspect=fixed;image=https://cdn1.iconfinder.com/data/icons/ui-essential-17/32/UI_Essential_Outline_1_essential-app-ui-creative-idea-lamp-128.png" parent="GCaUtwYMzPnIk7fHXFFh-66" vertex="1">
          <mxGeometry x="200" width="80" height="80" as="geometry" />
        </mxCell>
        <mxCell id="GCaUtwYMzPnIk7fHXFFh-8" value="" style="endArrow=classic;startArrow=classic;html=1;rounded=0;entryX=0.5;entryY=1;entryDx=0;entryDy=0;" parent="GCaUtwYMzPnIk7fHXFFh-66" source="GCaUtwYMzPnIk7fHXFFh-5" target="GCaUtwYMzPnIk7fHXFFh-2" edge="1">
          <mxGeometry width="50" height="50" relative="1" as="geometry">
            <mxPoint x="260" y="90" as="sourcePoint" />
            <mxPoint x="310" y="40" as="targetPoint" />
          </mxGeometry>
        </mxCell>
        <mxCell id="GCaUtwYMzPnIk7fHXFFh-10" value="" style="endArrow=classic;startArrow=classic;html=1;rounded=0;entryX=0.5;entryY=1;entryDx=0;entryDy=0;exitX=0.75;exitY=0;exitDx=0;exitDy=0;" parent="GCaUtwYMzPnIk7fHXFFh-66" source="GCaUtwYMzPnIk7fHXFFh-5" target="GCaUtwYMzPnIk7fHXFFh-3" edge="1">
          <mxGeometry width="50" height="50" relative="1" as="geometry">
            <mxPoint x="230" y="180" as="sourcePoint" />
            <mxPoint x="90" y="90" as="targetPoint" />
          </mxGeometry>
        </mxCell>
        <mxCell id="GCaUtwYMzPnIk7fHXFFh-42" value="" style="group" parent="GCaUtwYMzPnIk7fHXFFh-66" vertex="1" connectable="0">
          <mxGeometry x="80" y="200" width="120" height="110" as="geometry" />
        </mxCell>
        <mxCell id="GCaUtwYMzPnIk7fHXFFh-4" value="&lt;p&gt;86盒&lt;/p&gt;&lt;p&gt;&lt;br&gt;&lt;/p&gt;" style="rounded=1;whiteSpace=wrap;html=1;align=left;" parent="GCaUtwYMzPnIk7fHXFFh-42" vertex="1">
          <mxGeometry width="120" height="110" as="geometry" />
        </mxCell>
        <mxCell id="GCaUtwYMzPnIk7fHXFFh-5" value="易来双路控制器" style="shape=process;whiteSpace=wrap;html=1;backgroundOutline=1;" parent="GCaUtwYMzPnIk7fHXFFh-42" vertex="1">
          <mxGeometry x="30" width="80" height="30" as="geometry" />
        </mxCell>
        <mxCell id="GCaUtwYMzPnIk7fHXFFh-29" value="开关2A" style="rounded=1;whiteSpace=wrap;html=1;" parent="GCaUtwYMzPnIk7fHXFFh-42" vertex="1">
          <mxGeometry y="80" width="60" height="30" as="geometry" />
        </mxCell>
        <mxCell id="GCaUtwYMzPnIk7fHXFFh-30" value="开关2B" style="rounded=1;whiteSpace=wrap;html=1;" parent="GCaUtwYMzPnIk7fHXFFh-42" vertex="1">
          <mxGeometry x="60" y="80" width="60" height="30" as="geometry" />
        </mxCell>
        <mxCell id="GCaUtwYMzPnIk7fHXFFh-33" value="双路凌动双控开关" style="text;html=1;align=center;verticalAlign=middle;resizable=0;points=[];autosize=1;strokeColor=none;fillColor=none;" parent="GCaUtwYMzPnIk7fHXFFh-42" vertex="1">
          <mxGeometry y="50" width="120" height="30" as="geometry" />
        </mxCell>
        <mxCell id="GCaUtwYMzPnIk7fHXFFh-40" value="" style="endArrow=classic;startArrow=classic;html=1;rounded=0;exitX=0.25;exitY=1;exitDx=0;exitDy=0;" parent="GCaUtwYMzPnIk7fHXFFh-42" source="GCaUtwYMzPnIk7fHXFFh-5" edge="1">
          <mxGeometry width="50" height="50" relative="1" as="geometry">
            <mxPoint x="-90" y="115" as="sourcePoint" />
            <mxPoint x="30" y="80" as="targetPoint" />
          </mxGeometry>
        </mxCell>
        <mxCell id="GCaUtwYMzPnIk7fHXFFh-41" value="" style="endArrow=classic;startArrow=classic;html=1;rounded=0;exitX=0.75;exitY=1;exitDx=0;exitDy=0;entryX=0.817;entryY=1;entryDx=0;entryDy=0;entryPerimeter=0;" parent="GCaUtwYMzPnIk7fHXFFh-42" source="GCaUtwYMzPnIk7fHXFFh-5" target="GCaUtwYMzPnIk7fHXFFh-33" edge="1">
          <mxGeometry width="50" height="50" relative="1" as="geometry">
            <mxPoint x="60" y="40" as="sourcePoint" />
            <mxPoint x="40" y="90" as="targetPoint" />
          </mxGeometry>
        </mxCell>
        <mxCell id="GCaUtwYMzPnIk7fHXFFh-67" value="" style="group" parent="1" vertex="1" connectable="0">
          <mxGeometry x="520" y="200" width="280" height="310" as="geometry" />
        </mxCell>
        <mxCell id="GCaUtwYMzPnIk7fHXFFh-68" value="" style="shape=image;html=1;verticalAlign=top;verticalLabelPosition=bottom;labelBackgroundColor=#ffffff;imageAspect=0;aspect=fixed;image=https://cdn1.iconfinder.com/data/icons/ui-essential-17/32/UI_Essential_Outline_1_essential-app-ui-creative-idea-lamp-128.png" parent="GCaUtwYMzPnIk7fHXFFh-67" vertex="1">
          <mxGeometry width="80" height="80" as="geometry" />
        </mxCell>
        <mxCell id="GCaUtwYMzPnIk7fHXFFh-69" value="" style="shape=image;html=1;verticalAlign=top;verticalLabelPosition=bottom;labelBackgroundColor=#ffffff;imageAspect=0;aspect=fixed;image=https://cdn1.iconfinder.com/data/icons/ui-essential-17/32/UI_Essential_Outline_1_essential-app-ui-creative-idea-lamp-128.png" parent="GCaUtwYMzPnIk7fHXFFh-67" vertex="1">
          <mxGeometry x="200" width="80" height="80" as="geometry" />
        </mxCell>
        <mxCell id="GCaUtwYMzPnIk7fHXFFh-70" value="" style="endArrow=classic;startArrow=classic;html=1;rounded=0;entryX=0.5;entryY=1;entryDx=0;entryDy=0;" parent="GCaUtwYMzPnIk7fHXFFh-67" source="GCaUtwYMzPnIk7fHXFFh-74" target="GCaUtwYMzPnIk7fHXFFh-68" edge="1">
          <mxGeometry width="50" height="50" relative="1" as="geometry">
            <mxPoint x="260" y="90" as="sourcePoint" />
            <mxPoint x="310" y="40" as="targetPoint" />
          </mxGeometry>
        </mxCell>
        <mxCell id="GCaUtwYMzPnIk7fHXFFh-71" value="" style="endArrow=classic;startArrow=classic;html=1;rounded=0;entryX=0.5;entryY=1;entryDx=0;entryDy=0;exitX=0.75;exitY=0;exitDx=0;exitDy=0;" parent="GCaUtwYMzPnIk7fHXFFh-67" source="GCaUtwYMzPnIk7fHXFFh-74" target="GCaUtwYMzPnIk7fHXFFh-69" edge="1">
          <mxGeometry width="50" height="50" relative="1" as="geometry">
            <mxPoint x="230" y="180" as="sourcePoint" />
            <mxPoint x="90" y="90" as="targetPoint" />
          </mxGeometry>
        </mxCell>
        <mxCell id="GCaUtwYMzPnIk7fHXFFh-72" value="" style="group" parent="GCaUtwYMzPnIk7fHXFFh-67" vertex="1" connectable="0">
          <mxGeometry x="80" y="200" width="120" height="110" as="geometry" />
        </mxCell>
        <mxCell id="GCaUtwYMzPnIk7fHXFFh-73" value="&lt;p&gt;86盒&lt;/p&gt;&lt;p&gt;&lt;br&gt;&lt;/p&gt;" style="rounded=1;whiteSpace=wrap;html=1;align=left;" parent="GCaUtwYMzPnIk7fHXFFh-72" vertex="1">
          <mxGeometry width="120" height="110" as="geometry" />
        </mxCell>
        <mxCell id="GCaUtwYMzPnIk7fHXFFh-74" value="易来双路控制器" style="shape=process;whiteSpace=wrap;html=1;backgroundOutline=1;" parent="GCaUtwYMzPnIk7fHXFFh-72" vertex="1">
          <mxGeometry x="30" width="80" height="30" as="geometry" />
        </mxCell>
        <mxCell id="GCaUtwYMzPnIk7fHXFFh-75" value="开关4A" style="rounded=1;whiteSpace=wrap;html=1;" parent="GCaUtwYMzPnIk7fHXFFh-72" vertex="1">
          <mxGeometry y="80" width="60" height="30" as="geometry" />
        </mxCell>
        <mxCell id="GCaUtwYMzPnIk7fHXFFh-76" value="开关4B" style="rounded=1;whiteSpace=wrap;html=1;" parent="GCaUtwYMzPnIk7fHXFFh-72" vertex="1">
          <mxGeometry x="60" y="80" width="60" height="30" as="geometry" />
        </mxCell>
        <mxCell id="GCaUtwYMzPnIk7fHXFFh-77" value="双路凌动双控开关" style="text;html=1;align=center;verticalAlign=middle;resizable=0;points=[];autosize=1;strokeColor=none;fillColor=none;" parent="GCaUtwYMzPnIk7fHXFFh-72" vertex="1">
          <mxGeometry y="50" width="120" height="30" as="geometry" />
        </mxCell>
        <mxCell id="GCaUtwYMzPnIk7fHXFFh-78" value="" style="endArrow=classic;startArrow=classic;html=1;rounded=0;exitX=0.25;exitY=1;exitDx=0;exitDy=0;" parent="GCaUtwYMzPnIk7fHXFFh-72" source="GCaUtwYMzPnIk7fHXFFh-74" edge="1">
          <mxGeometry width="50" height="50" relative="1" as="geometry">
            <mxPoint x="-90" y="115" as="sourcePoint" />
            <mxPoint x="30" y="80" as="targetPoint" />
          </mxGeometry>
        </mxCell>
        <mxCell id="GCaUtwYMzPnIk7fHXFFh-79" value="" style="endArrow=classic;startArrow=classic;html=1;rounded=0;exitX=0.75;exitY=1;exitDx=0;exitDy=0;entryX=0.817;entryY=1;entryDx=0;entryDy=0;entryPerimeter=0;" parent="GCaUtwYMzPnIk7fHXFFh-72" source="GCaUtwYMzPnIk7fHXFFh-74" target="GCaUtwYMzPnIk7fHXFFh-77" edge="1">
          <mxGeometry width="50" height="50" relative="1" as="geometry">
            <mxPoint x="60" y="40" as="sourcePoint" />
            <mxPoint x="40" y="90" as="targetPoint" />
          </mxGeometry>
        </mxCell>
        <mxCell id="GCaUtwYMzPnIk7fHXFFh-39" value="" style="endArrow=classic;startArrow=classic;html=1;rounded=0;exitX=1;exitY=0.5;exitDx=0;exitDy=0;entryX=0.25;entryY=1;entryDx=0;entryDy=0;" parent="1" source="GCaUtwYMzPnIk7fHXFFh-28" target="GCaUtwYMzPnIk7fHXFFh-5" edge="1">
          <mxGeometry width="50" height="50" relative="1" as="geometry">
            <mxPoint x="50" y="479" as="sourcePoint" />
            <mxPoint x="160" y="479" as="targetPoint" />
          </mxGeometry>
        </mxCell>
        <mxCell id="GCaUtwYMzPnIk7fHXFFh-38" value="" style="endArrow=classic;startArrow=classic;html=1;rounded=0;exitX=1;exitY=0.5;exitDx=0;exitDy=0;entryX=0;entryY=0.5;entryDx=0;entryDy=0;" parent="1" source="GCaUtwYMzPnIk7fHXFFh-28" target="GCaUtwYMzPnIk7fHXFFh-29" edge="1">
          <mxGeometry width="50" height="50" relative="1" as="geometry">
            <mxPoint x="190" y="620" as="sourcePoint" />
            <mxPoint x="240" y="570" as="targetPoint" />
          </mxGeometry>
        </mxCell>
        <mxCell id="GCaUtwYMzPnIk7fHXFFh-80" value="" style="endArrow=classic;startArrow=classic;html=1;rounded=0;exitX=1;exitY=0.5;exitDx=0;exitDy=0;" parent="1" source="GCaUtwYMzPnIk7fHXFFh-76" target="GCaUtwYMzPnIk7fHXFFh-54" edge="1">
          <mxGeometry width="50" height="50" relative="1" as="geometry">
            <mxPoint x="720" y="540" as="sourcePoint" />
            <mxPoint x="830" y="540" as="targetPoint" />
          </mxGeometry>
        </mxCell>
        <mxCell id="GCaUtwYMzPnIk7fHXFFh-81" value="" style="endArrow=classic;startArrow=classic;html=1;rounded=0;exitX=1;exitY=0.5;exitDx=0;exitDy=0;" parent="1" source="GCaUtwYMzPnIk7fHXFFh-30" target="GCaUtwYMzPnIk7fHXFFh-59" edge="1">
          <mxGeometry width="50" height="50" relative="1" as="geometry">
            <mxPoint x="340" y="530" as="sourcePoint" />
            <mxPoint x="450" y="530" as="targetPoint" />
          </mxGeometry>
        </mxCell>
        <mxCell id="GCaUtwYMzPnIk7fHXFFh-83" value="" style="endArrow=classic;startArrow=classic;html=1;rounded=0;" parent="1" source="GCaUtwYMzPnIk7fHXFFh-60" target="GCaUtwYMzPnIk7fHXFFh-75" edge="1">
          <mxGeometry width="50" height="50" relative="1" as="geometry">
            <mxPoint x="520" y="500" as="sourcePoint" />
            <mxPoint x="600" y="500" as="targetPoint" />
          </mxGeometry>
        </mxCell>
        <mxCell id="GCaUtwYMzPnIk7fHXFFh-84" value="" style="endArrow=classic;startArrow=classic;html=1;rounded=0;entryX=0.75;entryY=1;entryDx=0;entryDy=0;exitX=0;exitY=0.5;exitDx=0;exitDy=0;" parent="1" source="GCaUtwYMzPnIk7fHXFFh-59" target="GCaUtwYMzPnIk7fHXFFh-5" edge="1">
          <mxGeometry width="50" height="50" relative="1" as="geometry">
            <mxPoint x="100" y="505" as="sourcePoint" />
            <mxPoint x="260" y="440" as="targetPoint" />
          </mxGeometry>
        </mxCell>
        <mxCell id="GCaUtwYMzPnIk7fHXFFh-85" value="" style="endArrow=classic;startArrow=classic;html=1;rounded=0;entryX=0.25;entryY=1;entryDx=0;entryDy=0;exitX=1;exitY=0.5;exitDx=0;exitDy=0;" parent="1" source="GCaUtwYMzPnIk7fHXFFh-60" target="GCaUtwYMzPnIk7fHXFFh-74" edge="1">
          <mxGeometry width="50" height="50" relative="1" as="geometry">
            <mxPoint x="410" y="505" as="sourcePoint" />
            <mxPoint x="300" y="440" as="targetPoint" />
          </mxGeometry>
        </mxCell>
        <mxCell id="GCaUtwYMzPnIk7fHXFFh-86" value="" style="endArrow=classic;startArrow=classic;html=1;rounded=0;entryX=0.75;entryY=1;entryDx=0;entryDy=0;exitX=0;exitY=0.5;exitDx=0;exitDy=0;" parent="1" source="GCaUtwYMzPnIk7fHXFFh-54" target="GCaUtwYMzPnIk7fHXFFh-74" edge="1">
          <mxGeometry width="50" height="50" relative="1" as="geometry">
            <mxPoint x="530" y="505" as="sourcePoint" />
            <mxPoint x="660" y="440" as="targetPoint" />
          </mxGeometry>
        </mxCell>
        <mxCell id="W3iB199qBJ8o43H76Pn8-48" value="" style="group" parent="1" vertex="1" connectable="0">
          <mxGeometry y="840" width="120" height="110" as="geometry" />
        </mxCell>
        <mxCell id="W3iB199qBJ8o43H76Pn8-49" value="&lt;p&gt;86盒&lt;/p&gt;&lt;p&gt;&lt;br&gt;&lt;/p&gt;" style="rounded=1;whiteSpace=wrap;html=1;align=left;" parent="W3iB199qBJ8o43H76Pn8-48" vertex="1">
          <mxGeometry width="120" height="110" as="geometry" />
        </mxCell>
        <mxCell id="W3iB199qBJ8o43H76Pn8-50" value="开关1" style="rounded=1;whiteSpace=wrap;html=1;" parent="W3iB199qBJ8o43H76Pn8-48" vertex="1">
          <mxGeometry x="30" y="80" width="60" height="30" as="geometry" />
        </mxCell>
        <mxCell id="W3iB199qBJ8o43H76Pn8-51" value="无线开关" style="text;html=1;align=center;verticalAlign=middle;resizable=0;points=[];autosize=1;strokeColor=none;fillColor=none;" parent="W3iB199qBJ8o43H76Pn8-48" vertex="1">
          <mxGeometry x="25" y="50" width="70" height="30" as="geometry" />
        </mxCell>
        <mxCell id="W3iB199qBJ8o43H76Pn8-52" value="" style="group" parent="1" vertex="1" connectable="0">
          <mxGeometry x="800" y="840" width="120" height="110" as="geometry" />
        </mxCell>
        <mxCell id="W3iB199qBJ8o43H76Pn8-53" value="&lt;p&gt;86盒&lt;/p&gt;&lt;p&gt;&lt;br&gt;&lt;/p&gt;" style="rounded=1;whiteSpace=wrap;html=1;align=left;" parent="W3iB199qBJ8o43H76Pn8-52" vertex="1">
          <mxGeometry width="120" height="110" as="geometry" />
        </mxCell>
        <mxCell id="W3iB199qBJ8o43H76Pn8-54" value="开关5" style="rounded=1;whiteSpace=wrap;html=1;" parent="W3iB199qBJ8o43H76Pn8-52" vertex="1">
          <mxGeometry x="30" y="80" width="60" height="30" as="geometry" />
        </mxCell>
        <mxCell id="W3iB199qBJ8o43H76Pn8-55" value="无线开关" style="text;html=1;align=center;verticalAlign=middle;resizable=0;points=[];autosize=1;strokeColor=none;fillColor=none;" parent="W3iB199qBJ8o43H76Pn8-52" vertex="1">
          <mxGeometry x="25" y="50" width="70" height="30" as="geometry" />
        </mxCell>
        <mxCell id="W3iB199qBJ8o43H76Pn8-56" value="" style="group" parent="1" vertex="1" connectable="0">
          <mxGeometry x="400" y="840" width="120" height="110" as="geometry" />
        </mxCell>
        <mxCell id="W3iB199qBJ8o43H76Pn8-57" value="&lt;p&gt;86盒&lt;/p&gt;&lt;p&gt;&lt;br&gt;&lt;/p&gt;" style="rounded=1;whiteSpace=wrap;html=1;align=left;" parent="W3iB199qBJ8o43H76Pn8-56" vertex="1">
          <mxGeometry width="120" height="110" as="geometry" />
        </mxCell>
        <mxCell id="W3iB199qBJ8o43H76Pn8-58" value="开关3A" style="rounded=1;whiteSpace=wrap;html=1;" parent="W3iB199qBJ8o43H76Pn8-56" vertex="1">
          <mxGeometry y="80" width="60" height="30" as="geometry" />
        </mxCell>
        <mxCell id="W3iB199qBJ8o43H76Pn8-59" value="开关3B" style="rounded=1;whiteSpace=wrap;html=1;" parent="W3iB199qBJ8o43H76Pn8-56" vertex="1">
          <mxGeometry x="60" y="80" width="60" height="30" as="geometry" />
        </mxCell>
        <mxCell id="W3iB199qBJ8o43H76Pn8-60" value="双路无线开关" style="text;html=1;align=center;verticalAlign=middle;resizable=0;points=[];autosize=1;strokeColor=none;fillColor=none;" parent="W3iB199qBJ8o43H76Pn8-56" vertex="1">
          <mxGeometry x="10" y="50" width="100" height="30" as="geometry" />
        </mxCell>
        <mxCell id="W3iB199qBJ8o43H76Pn8-88" value="" style="endArrow=classic;startArrow=classic;html=1;rounded=0;exitX=1;exitY=0.5;exitDx=0;exitDy=0;entryX=0;entryY=0.5;entryDx=0;entryDy=0;dashed=1;" parent="1" source="W3iB199qBJ8o43H76Pn8-50" target="W3iB199qBJ8o43H76Pn8-69" edge="1">
          <mxGeometry width="50" height="50" relative="1" as="geometry">
            <mxPoint x="190" y="1060" as="sourcePoint" />
            <mxPoint x="240" y="1010" as="targetPoint" />
          </mxGeometry>
        </mxCell>
        <mxCell id="W3iB199qBJ8o43H76Pn8-89" value="" style="endArrow=classic;startArrow=classic;html=1;rounded=0;exitX=1;exitY=0.5;exitDx=0;exitDy=0;dashed=1;" parent="1" target="W3iB199qBJ8o43H76Pn8-54" edge="1">
          <mxGeometry width="50" height="50" relative="1" as="geometry">
            <mxPoint x="720" y="935" as="sourcePoint" />
            <mxPoint x="830" y="980" as="targetPoint" />
          </mxGeometry>
        </mxCell>
        <mxCell id="W3iB199qBJ8o43H76Pn8-90" value="" style="endArrow=classic;startArrow=classic;html=1;rounded=0;exitX=1;exitY=0.5;exitDx=0;exitDy=0;dashed=1;" parent="1" source="W3iB199qBJ8o43H76Pn8-70" target="W3iB199qBJ8o43H76Pn8-58" edge="1">
          <mxGeometry width="50" height="50" relative="1" as="geometry">
            <mxPoint x="340" y="970" as="sourcePoint" />
            <mxPoint x="450" y="970" as="targetPoint" />
          </mxGeometry>
        </mxCell>
        <mxCell id="W3iB199qBJ8o43H76Pn8-91" value="" style="endArrow=classic;startArrow=classic;html=1;rounded=0;dashed=1;entryX=0;entryY=0.5;entryDx=0;entryDy=0;" parent="1" source="W3iB199qBJ8o43H76Pn8-59" target="W3iB199qBJ8o43H76Pn8-106" edge="1">
          <mxGeometry width="50" height="50" relative="1" as="geometry">
            <mxPoint x="520" y="940" as="sourcePoint" />
            <mxPoint x="600" y="935" as="targetPoint" />
          </mxGeometry>
        </mxCell>
        <mxCell id="W3iB199qBJ8o43H76Pn8-62" value="" style="shape=image;html=1;verticalAlign=top;verticalLabelPosition=bottom;labelBackgroundColor=#ffffff;imageAspect=0;aspect=fixed;image=https://cdn1.iconfinder.com/data/icons/ui-essential-17/32/UI_Essential_Outline_1_essential-app-ui-creative-idea-lamp-128.png" parent="1" vertex="1">
          <mxGeometry x="120" y="640" width="80" height="80" as="geometry" />
        </mxCell>
        <mxCell id="W3iB199qBJ8o43H76Pn8-63" value="" style="shape=image;html=1;verticalAlign=top;verticalLabelPosition=bottom;labelBackgroundColor=#ffffff;imageAspect=0;aspect=fixed;image=https://cdn1.iconfinder.com/data/icons/ui-essential-17/32/UI_Essential_Outline_1_essential-app-ui-creative-idea-lamp-128.png" parent="1" vertex="1">
          <mxGeometry x="320" y="640" width="80" height="80" as="geometry" />
        </mxCell>
        <mxCell id="W3iB199qBJ8o43H76Pn8-64" value="" style="endArrow=classic;startArrow=classic;html=1;rounded=0;entryX=0.5;entryY=1;entryDx=0;entryDy=0;" parent="1" target="W3iB199qBJ8o43H76Pn8-62" edge="1">
          <mxGeometry width="50" height="50" relative="1" as="geometry">
            <mxPoint x="257.7777777777778" y="840" as="sourcePoint" />
            <mxPoint x="430" y="680" as="targetPoint" />
          </mxGeometry>
        </mxCell>
        <mxCell id="W3iB199qBJ8o43H76Pn8-65" value="" style="endArrow=classic;startArrow=classic;html=1;rounded=0;entryX=0.5;entryY=1;entryDx=0;entryDy=0;exitX=0.75;exitY=0;exitDx=0;exitDy=0;" parent="1" target="W3iB199qBJ8o43H76Pn8-63" edge="1">
          <mxGeometry width="50" height="50" relative="1" as="geometry">
            <mxPoint x="290" y="840" as="sourcePoint" />
            <mxPoint x="210" y="730" as="targetPoint" />
          </mxGeometry>
        </mxCell>
        <mxCell id="W3iB199qBJ8o43H76Pn8-67" value="&lt;p&gt;86盒&lt;/p&gt;&lt;p&gt;&lt;br&gt;&lt;/p&gt;" style="rounded=1;whiteSpace=wrap;html=1;align=left;" parent="1" vertex="1">
          <mxGeometry x="200" y="840" width="120" height="110" as="geometry" />
        </mxCell>
        <mxCell id="W3iB199qBJ8o43H76Pn8-69" value="开关2A" style="rounded=1;whiteSpace=wrap;html=1;" parent="1" vertex="1">
          <mxGeometry x="200" y="920" width="60" height="30" as="geometry" />
        </mxCell>
        <mxCell id="W3iB199qBJ8o43H76Pn8-70" value="开关2B" style="rounded=1;whiteSpace=wrap;html=1;" parent="1" vertex="1">
          <mxGeometry x="260" y="920" width="60" height="30" as="geometry" />
        </mxCell>
        <mxCell id="W3iB199qBJ8o43H76Pn8-71" value="双路小米智能开关" style="text;html=1;align=center;verticalAlign=middle;resizable=0;points=[];autosize=1;strokeColor=none;fillColor=none;" parent="1" vertex="1">
          <mxGeometry x="200" y="890" width="120" height="30" as="geometry" />
        </mxCell>
        <mxCell id="W3iB199qBJ8o43H76Pn8-100" value="" style="endArrow=classic;startArrow=classic;html=1;rounded=0;exitX=1;exitY=0.5;exitDx=0;exitDy=0;dashed=1;" parent="1" source="W3iB199qBJ8o43H76Pn8-107" edge="1">
          <mxGeometry width="50" height="50" relative="1" as="geometry">
            <mxPoint x="740" y="970" as="sourcePoint" />
            <mxPoint x="800" y="935" as="targetPoint" />
          </mxGeometry>
        </mxCell>
        <mxCell id="W3iB199qBJ8o43H76Pn8-101" value="" style="shape=image;html=1;verticalAlign=top;verticalLabelPosition=bottom;labelBackgroundColor=#ffffff;imageAspect=0;aspect=fixed;image=https://cdn1.iconfinder.com/data/icons/ui-essential-17/32/UI_Essential_Outline_1_essential-app-ui-creative-idea-lamp-128.png" parent="1" vertex="1">
          <mxGeometry x="520" y="640" width="80" height="80" as="geometry" />
        </mxCell>
        <mxCell id="W3iB199qBJ8o43H76Pn8-102" value="" style="shape=image;html=1;verticalAlign=top;verticalLabelPosition=bottom;labelBackgroundColor=#ffffff;imageAspect=0;aspect=fixed;image=https://cdn1.iconfinder.com/data/icons/ui-essential-17/32/UI_Essential_Outline_1_essential-app-ui-creative-idea-lamp-128.png" parent="1" vertex="1">
          <mxGeometry x="720" y="640" width="80" height="80" as="geometry" />
        </mxCell>
        <mxCell id="W3iB199qBJ8o43H76Pn8-103" value="" style="endArrow=classic;startArrow=classic;html=1;rounded=0;entryX=0.5;entryY=1;entryDx=0;entryDy=0;" parent="1" target="W3iB199qBJ8o43H76Pn8-101" edge="1">
          <mxGeometry width="50" height="50" relative="1" as="geometry">
            <mxPoint x="657.7777777777778" y="840" as="sourcePoint" />
            <mxPoint x="830" y="680" as="targetPoint" />
          </mxGeometry>
        </mxCell>
        <mxCell id="W3iB199qBJ8o43H76Pn8-104" value="" style="endArrow=classic;startArrow=classic;html=1;rounded=0;entryX=0.5;entryY=1;entryDx=0;entryDy=0;exitX=0.75;exitY=0;exitDx=0;exitDy=0;" parent="1" target="W3iB199qBJ8o43H76Pn8-102" edge="1">
          <mxGeometry width="50" height="50" relative="1" as="geometry">
            <mxPoint x="690" y="840" as="sourcePoint" />
            <mxPoint x="610" y="730" as="targetPoint" />
          </mxGeometry>
        </mxCell>
        <mxCell id="W3iB199qBJ8o43H76Pn8-105" value="&lt;p&gt;86盒&lt;/p&gt;&lt;p&gt;&lt;br&gt;&lt;/p&gt;" style="rounded=1;whiteSpace=wrap;html=1;align=left;" parent="1" vertex="1">
          <mxGeometry x="600" y="840" width="120" height="110" as="geometry" />
        </mxCell>
        <mxCell id="W3iB199qBJ8o43H76Pn8-106" value="开关4A" style="rounded=1;whiteSpace=wrap;html=1;" parent="1" vertex="1">
          <mxGeometry x="600" y="920" width="60" height="30" as="geometry" />
        </mxCell>
        <mxCell id="W3iB199qBJ8o43H76Pn8-107" value="开关4B" style="rounded=1;whiteSpace=wrap;html=1;" parent="1" vertex="1">
          <mxGeometry x="660" y="920" width="60" height="30" as="geometry" />
        </mxCell>
        <mxCell id="W3iB199qBJ8o43H76Pn8-108" value="双路小米智能开关" style="text;html=1;align=center;verticalAlign=middle;resizable=0;points=[];autosize=1;strokeColor=none;fillColor=none;" parent="1" vertex="1">
          <mxGeometry x="600" y="890" width="120" height="30" as="geometry" />
        </mxCell>
        <mxCell id="lkS-sAUaGlAzwRy_0zqi-2" value="全有线方式" style="text;html=1;strokeColor=none;fillColor=none;align=center;verticalAlign=middle;whiteSpace=wrap;rounded=0;" vertex="1" parent="1">
          <mxGeometry x="10" y="310" width="100" height="30" as="geometry" />
        </mxCell>
      </root>
    </mxGraphModel>
  </diagram>
</mxfile>
